<svg width="1150" height="203" viewBox="0 0 1150 203" fill="none" xmlns="http://www.w3.org/2000/svg">
<path d="M256.2 199.6C248.333 199.6 241.2 198.867 234.8 197.4C228.4 195.933 223.333 193.733 219.6 190.8C215.867 188 214 184.4 214 180C214 175.733 215.867 171.933 219.6 168.6C223.333 165.267 228.8 162.733 236 161L237.4 164.2C234.867 165.667 232.933 167.667 231.6 170.2C230.267 172.733 229.6 175.4 229.6 178.2C229.6 183.933 232.2 188.333 237.4 191.4C242.733 194.6 249.8 196.2 258.6 196.2C264.6 196.2 270.133 195.4 275.2 193.8C280.267 192.2 284.333 189.733 287.4 186.4C290.467 183.067 292 178.933 292 174C292 169.867 290.467 166.4 287.4 163.6C284.467 160.8 278.533 159.4 269.6 159.4H256.4C251.467 159.4 246.933 158.867 242.8 157.8C238.8 156.733 235.6 155 233.2 152.6C230.8 150.2 229.6 146.867 229.6 142.6C229.6 137.4 231.733 132.733 236 128.6C240.267 124.333 246.933 120.2 256 116.2L258.2 118C254.867 119.733 251.867 121.6 249.2 123.6C246.667 125.6 245.4 128.133 245.4 131.2C245.4 135.467 248.333 137.6 254.2 137.6H276.8C283.733 137.6 289.867 138.467 295.2 140.2C300.667 141.933 305 144.667 308.2 148.4C311.4 152.133 313 157.067 313 163.2C313 169.6 310.933 175.533 306.8 181C302.667 186.6 296.4 191.067 288 194.4C279.733 197.867 269.133 199.6 256.2 199.6ZM258 119.4C250.8 119.4 244.267 118.333 238.4 116.2C232.667 113.933 228.133 110.467 224.8 105.8C221.467 101 219.8 94.9332 219.8 87.5999C219.8 80.2666 221.467 74.2666 224.8 69.5999C228.133 64.9332 232.667 61.4666 238.4 59.1999C244.267 56.9332 250.8 55.7999 258 55.7999C265.333 55.7999 271.867 56.9332 277.6 59.1999C283.333 61.4666 287.867 64.9332 291.2 69.5999C294.533 74.2666 296.2 80.2666 296.2 87.5999C296.2 94.9332 294.533 101 291.2 105.8C287.867 110.467 283.333 113.933 277.6 116.2C271.867 118.333 265.333 119.4 258 119.4ZM258 115.8C262 115.8 265.133 113.8 267.4 109.8C269.8 105.667 271 98.2666 271 87.5999C271 76.9332 269.8 69.5999 267.4 65.5999C265.133 61.4666 262 59.3999 258 59.3999C254 59.3999 250.8 61.4666 248.4 65.5999C246.133 69.5999 245 76.9332 245 87.5999C245 98.2666 246.133 105.667 248.4 109.8C250.8 113.8 254 115.8 258 115.8ZM288.2 72.7999L284.4 71.3999C286.4 66.4666 289.667 62.3332 294.2 58.9999C298.733 55.5332 303.533 53.7999 308.6 53.7999C312.467 53.7999 315.467 54.8666 317.6 56.9999C319.867 59.1332 321 62.1332 321 65.9999C321 69.9999 319.933 72.9332 317.8 74.7999C315.667 76.6666 313.333 77.5999 310.8 77.5999C308.533 77.5999 306.467 76.8666 304.6 75.3999C302.733 73.7999 301.667 71.3999 301.4 68.1999C301.133 64.8666 302.2 60.7332 304.6 55.7999L306.6 56.5999C301.4 58.5999 297.533 60.7999 295 63.1999C292.467 65.5999 290.2 68.7999 288.2 72.7999Z" fill="#17191F"/>
<path d="M364.584 5.3999V76.1999C367.918 68.7332 372.518 63.4666 378.384 60.3999C384.384 57.3332 390.851 55.7999 397.784 55.7999C403.251 55.7999 407.718 56.5332 411.184 57.9999C414.651 59.4666 417.451 61.3332 419.584 63.5999C421.851 66.1332 423.451 69.3999 424.384 73.3999C425.451 77.3999 425.984 82.7999 425.984 89.5999V143.4C425.984 149 426.984 152.8 428.984 154.8C431.118 156.8 434.651 157.8 439.584 157.8V162C437.184 161.867 433.518 161.733 428.584 161.6C423.651 161.333 418.784 161.2 413.984 161.2C409.184 161.2 404.451 161.333 399.784 161.6C395.118 161.733 391.584 161.867 389.184 162V157.8C393.451 157.8 396.451 156.8 398.184 154.8C399.918 152.8 400.784 149 400.784 143.4V82.7999C400.784 79.1999 400.451 75.9999 399.784 73.1999C399.118 70.2666 397.784 67.9999 395.784 66.3999C393.918 64.6666 391.051 63.7999 387.184 63.7999C382.918 63.7999 379.051 64.9999 375.584 67.3999C372.251 69.6666 369.584 72.9332 367.584 77.1999C365.584 81.3332 364.584 86.0666 364.584 91.3999V143.4C364.584 149 365.451 152.8 367.184 154.8C369.051 156.8 372.051 157.8 376.184 157.8V162C373.918 161.867 370.518 161.733 365.984 161.6C361.584 161.333 356.984 161.2 352.184 161.2C347.384 161.2 342.384 161.333 337.184 161.6C332.118 161.733 328.318 161.867 325.784 162V157.8C330.718 157.8 334.184 156.8 336.184 154.8C338.318 152.8 339.384 149 339.384 143.4V29.3999C339.384 23.3999 338.384 18.9999 336.384 16.1999C334.518 13.2666 330.984 11.7999 325.784 11.7999V7.59991C330.051 7.9999 334.184 8.1999 338.184 8.1999C343.251 8.1999 347.984 7.9999 352.384 7.59991C356.784 7.06658 360.851 6.33324 364.584 5.3999Z" fill="#17191F"/>
<path d="M498.297 55.7999C507.497 55.7999 515.63 57.6666 522.697 61.3999C529.897 64.9999 535.564 70.7999 539.697 78.7999C543.964 86.7999 546.097 97.3332 546.097 110.4C546.097 123.467 543.964 134 539.697 142C535.564 150 529.897 155.8 522.697 159.4C515.63 163 507.497 164.8 498.297 164.8C489.097 164.8 480.897 163 473.697 159.4C466.497 155.8 460.83 150 456.697 142C452.564 134 450.497 123.467 450.497 110.4C450.497 97.3332 452.564 86.7999 456.697 78.7999C460.83 70.7999 466.497 64.9999 473.697 61.3999C480.897 57.6666 489.097 55.7999 498.297 55.7999ZM498.297 59.7999C492.03 59.7999 486.897 63.7999 482.897 71.7999C479.03 79.6666 477.097 92.5332 477.097 110.4C477.097 128.267 479.03 141.133 482.897 149C486.897 156.867 492.03 160.8 498.297 160.8C504.43 160.8 509.497 156.867 513.497 149C517.497 141.133 519.497 128.267 519.497 110.4C519.497 92.5332 517.497 79.6666 513.497 71.7999C509.497 63.7999 504.43 59.7999 498.297 59.7999Z" fill="#17191F"/>
<path d="M597.416 55.7999C603.016 55.7999 607.816 56.5999 611.816 58.1999C615.816 59.7999 618.749 61.1999 620.616 62.3999C625.149 65.7332 627.882 63.5999 628.816 55.9999H633.216C632.949 59.8666 632.749 64.4666 632.616 69.7999C632.482 74.9999 632.416 81.9999 632.416 90.7999H628.016C627.349 85.8666 626.082 81.0666 624.216 76.3999C622.349 71.7332 619.616 67.8666 616.016 64.7999C612.416 61.5999 607.682 59.9999 601.816 59.9999C597.682 59.9999 594.216 61.1999 591.416 63.5999C588.749 65.9999 587.416 69.3999 587.416 73.7999C587.416 77.7999 588.616 81.3332 591.016 84.3999C593.416 87.3332 596.482 90.1332 600.216 92.7999C604.082 95.3332 608.082 98.1332 612.216 101.2C617.016 104.4 621.282 107.667 625.016 111C628.749 114.2 631.749 117.8 634.016 121.8C636.282 125.667 637.416 130.267 637.416 135.6C637.416 141.733 635.682 147 632.216 151.4C628.882 155.667 624.416 159 618.816 161.4C613.349 163.667 607.282 164.8 600.616 164.8C597.016 164.8 593.749 164.467 590.816 163.8C587.882 163.133 585.282 162.267 583.016 161.2C581.282 160.267 579.682 159.4 578.216 158.6C576.882 157.8 575.482 157.133 574.016 156.6C572.682 155.933 571.482 156.2 570.416 157.4C569.482 158.6 568.749 160.6 568.216 163.4H563.816C564.082 159.133 564.282 153.933 564.416 147.8C564.549 141.667 564.616 133.533 564.616 123.4H569.016C569.949 130.733 571.349 137.2 573.216 142.8C575.216 148.267 578.082 152.6 581.816 155.8C585.549 158.867 590.349 160.4 596.216 160.4C598.749 160.4 601.149 159.867 603.416 158.8C605.816 157.733 607.749 156.067 609.216 153.8C610.816 151.533 611.616 148.467 611.616 144.6C611.616 138.733 609.616 133.867 605.616 130C601.616 126.133 596.616 122 590.616 117.6C586.082 114.267 581.816 111 577.816 107.8C573.949 104.6 570.749 101 568.216 96.9999C565.816 92.9999 564.616 88.2666 564.616 82.7999C564.616 76.7999 566.149 71.8666 569.216 67.9999C572.282 63.9999 576.282 60.9999 581.216 58.9999C586.282 56.8666 591.682 55.7999 597.416 55.7999Z" fill="#17191F"/>
<path d="M688.422 25.7999V58.7999H714.022V62.7999H688.422V142.4C688.422 147.2 689.289 150.6 691.022 152.6C692.755 154.6 695.222 155.6 698.422 155.6C701.489 155.6 704.289 154.467 706.822 152.2C709.355 149.8 711.622 145.867 713.622 140.4L717.222 142C715.222 148.533 712.089 154 707.822 158.4C703.689 162.667 697.822 164.8 690.222 164.8C685.689 164.8 681.822 164.2 678.622 163C675.555 161.933 672.889 160.333 670.622 158.2C667.689 155.133 665.689 151.467 664.622 147.2C663.689 142.933 663.222 137.267 663.222 130.2V62.7999H645.622V58.7999H663.222V30.9999C668.022 30.8666 672.489 30.3999 676.622 29.5999C680.755 28.7999 684.689 27.5332 688.422 25.7999Z" fill="#17191F"/>
<path d="M758.534 5.3999V143.4C758.534 149 759.534 152.8 761.534 154.8C763.668 156.8 767.201 157.8 772.134 157.8V162C769.734 161.867 766.068 161.733 761.134 161.6C756.334 161.333 751.401 161.2 746.334 161.2C741.401 161.2 736.334 161.333 731.134 161.6C726.068 161.733 722.268 161.867 719.734 162V157.8C724.668 157.8 728.134 156.8 730.134 154.8C732.268 152.8 733.334 149 733.334 143.4V29.3999C733.334 23.3999 732.401 18.9999 730.534 16.1999C728.668 13.2666 725.068 11.7999 719.734 11.7999V7.59991C724.001 7.9999 728.134 8.1999 732.134 8.1999C737.201 8.1999 741.934 7.9999 746.334 7.59991C750.734 7.06658 754.801 6.33324 758.534 5.3999Z" fill="#17191F"/>
<path d="M877.481 58.5999V62.7999C874.948 63.3332 872.548 64.7332 870.281 66.9999C868.148 69.2666 866.081 73.2666 864.081 78.9999L834.481 160.2L828.281 169.6L787.081 73.9999C784.548 68.9332 782.148 65.7999 779.881 64.5999C777.615 63.3999 775.748 62.7999 774.281 62.7999V58.5999C778.148 58.9999 782.148 59.3332 786.281 59.5999C790.548 59.7332 794.815 59.7999 799.081 59.7999C804.015 59.7999 808.748 59.6666 813.281 59.3999C817.948 59.1332 822.281 58.8666 826.281 58.5999V62.7999C823.215 62.7999 820.481 62.9999 818.081 63.3999C815.681 63.7999 814.081 64.9332 813.281 66.7999C812.615 68.5332 813.148 71.5999 814.881 75.9999L839.881 137L838.281 137.8L855.881 90.1999C858.148 83.9332 859.081 78.8666 858.681 74.9999C858.281 71.1332 856.815 68.1999 854.281 66.1999C851.748 64.1999 848.281 63.0666 843.881 62.7999V58.5999C846.015 58.7332 848.148 58.8666 850.281 58.9999C852.415 59.1332 854.481 59.2666 856.481 59.3999C858.481 59.3999 860.415 59.3999 862.281 59.3999C865.081 59.3999 867.815 59.3332 870.481 59.1999C873.281 59.0666 875.615 58.8666 877.481 58.5999ZM834.481 160.2L826.881 180.4C825.681 183.733 824.348 186.533 822.881 188.8C821.548 191.2 820.015 193.133 818.281 194.6C816.281 196.333 813.815 197.6 810.881 198.4C808.081 199.2 804.948 199.6 801.481 199.6C798.415 199.6 795.415 199.067 792.481 198C789.681 196.933 787.281 195.333 785.281 193.2C783.415 191.067 782.481 188.267 782.481 184.8C782.481 181.067 783.748 178.067 786.281 175.8C788.815 173.533 792.281 172.4 796.681 172.4C800.548 172.4 803.681 173.333 806.081 175.2C808.615 177.2 809.881 180.133 809.881 184C809.881 186.533 809.148 188.8 807.681 190.8C806.215 192.8 804.148 194.333 801.481 195.4C802.148 195.533 802.748 195.6 803.281 195.6C803.948 195.733 804.481 195.8 804.881 195.8C808.748 195.8 812.215 194.533 815.281 192C818.348 189.467 820.815 185.467 822.681 180L829.881 160.2H834.481Z" fill="#17191F"/>
<path d="M942.1 20.3999C967.7 20.3999 986.633 26.3999 998.9 38.3999C1011.3 50.2666 1017.5 67.3332 1017.5 89.5999C1017.5 104.133 1014.43 116.867 1008.3 127.8C1002.3 138.6 993.567 147 982.1 153C970.633 159 956.7 162 940.3 162C938.3 162 935.567 161.933 932.1 161.8C928.767 161.667 925.233 161.6 921.5 161.6C917.9 161.467 914.567 161.4 911.5 161.4C906.033 161.4 900.7 161.467 895.5 161.6C890.3 161.6 886.033 161.733 882.7 162V158C887.1 157.733 890.367 157.2 892.5 156.4C894.767 155.6 896.233 154 896.9 151.6C897.7 149.2 898.1 145.6 898.1 140.8V41.5999C898.1 36.6666 897.7 33.0666 896.9 30.7999C896.233 28.3999 894.767 26.7999 892.5 25.9999C890.367 25.0666 887.1 24.5332 882.7 24.3999V20.3999C886.033 20.5332 890.3 20.7332 895.5 20.9999C900.7 21.1332 905.9 21.1332 911.1 20.9999C915.9 20.8666 921.3 20.7332 927.3 20.5999C933.3 20.4666 938.233 20.3999 942.1 20.3999ZM940.3 23.9999C934.167 23.9999 930.167 25.1332 928.3 27.3999C926.433 29.6666 925.5 34.2666 925.5 41.1999V141.2C925.5 148.133 926.433 152.733 928.3 155C930.3 157.267 934.367 158.4 940.5 158.4C952.9 158.4 962.567 155.8 969.5 150.6C976.567 145.267 981.5 137.533 984.3 127.4C987.233 117.267 988.7 104.933 988.7 90.3999C988.7 75.4666 987.1 63.1332 983.9 53.3999C980.833 43.5332 975.767 36.1999 968.7 31.3999C961.633 26.4666 952.167 23.9999 940.3 23.9999Z" fill="#17191F"/>
<path d="M1032.5 20.3999C1035.84 20.5332 1040.1 20.6666 1045.3 20.7999C1050.5 20.9332 1055.7 20.9999 1060.9 20.9999C1067.44 20.9999 1073.64 20.9332 1079.5 20.7999C1085.37 20.6666 1089.5 20.5999 1091.9 20.5999C1107.64 20.5999 1119.37 23.5332 1127.1 29.3999C1134.97 35.2666 1138.9 42.7999 1138.9 51.9999C1138.9 56.6666 1137.64 61.3332 1135.1 65.9999C1132.7 70.6666 1128.77 74.8666 1123.3 78.5999C1117.97 82.3332 1110.97 85.1332 1102.3 86.9999V87.3999C1114.04 88.4666 1123.3 90.8666 1130.1 94.5999C1137.04 98.1999 1141.97 102.533 1144.9 107.6C1147.84 112.533 1149.3 117.733 1149.3 123.2C1149.3 131.333 1147.17 138.333 1142.9 144.2C1138.77 149.933 1132.77 154.333 1124.9 157.4C1117.04 160.467 1107.57 162 1096.5 162C1093.57 162 1089.1 161.933 1083.1 161.8C1077.1 161.533 1069.84 161.4 1061.3 161.4C1055.84 161.4 1050.5 161.467 1045.3 161.6C1040.1 161.6 1035.84 161.733 1032.5 162V158C1036.9 157.733 1040.17 157.2 1042.3 156.4C1044.57 155.6 1046.04 154 1046.7 151.6C1047.5 149.2 1047.9 145.6 1047.9 140.8V41.5999C1047.9 36.6666 1047.5 33.0666 1046.7 30.7999C1046.04 28.3999 1044.57 26.7999 1042.3 25.9999C1040.17 25.0666 1036.9 24.5332 1032.5 24.3999V20.3999ZM1088.5 24.3999C1083.04 24.3999 1079.44 25.5332 1077.7 27.7999C1076.1 30.0666 1075.3 34.6666 1075.3 41.5999V140.8C1075.3 145.467 1075.7 149 1076.5 151.4C1077.3 153.8 1078.7 155.4 1080.7 156.2C1082.7 157 1085.64 157.4 1089.5 157.4C1100.44 157.4 1108.3 154.4 1113.1 148.4C1118.04 142.267 1120.5 133.6 1120.5 122.4C1120.5 112.133 1117.84 104.2 1112.5 98.5999C1107.3 92.9999 1098.64 90.1999 1086.5 90.1999H1068.3C1068.3 90.1999 1068.3 89.6666 1068.3 88.5999C1068.3 87.3999 1068.3 86.7999 1068.3 86.7999H1085.5C1092.3 86.7999 1097.57 85.3332 1101.3 82.3999C1105.04 79.3332 1107.57 75.3332 1108.9 70.3999C1110.24 65.3332 1110.9 59.9332 1110.9 54.1999C1110.9 44.3332 1109.17 36.9332 1105.7 31.9999C1102.24 26.9332 1096.5 24.3999 1088.5 24.3999Z" fill="#17191F"/>
<g clip-path="url(#clip0_67_271)">
<path d="M135.44 200.253C128.336 200.253 125.23 194.979 121.629 188.867C117.876 182.494 113.62 175.268 103.959 175.065C103.871 175.065 103.782 175.065 103.697 175.065C96.3312 175.065 93.3433 181.248 90.4569 187.228C87.2281 193.914 84.1768 200.227 75.3652 200.236C67.2383 200.236 64.4025 194.56 61.123 187.984C58.0886 181.907 54.6527 175.018 46.1032 175.018C36.2858 175.018 33.8642 182.516 31.9202 188.538C29.5831 195.777 27.7447 200.215 19.7573 200.215H19.715C4.54306 200.181 2.27783 185.537 2.27783 176.81V75.5597C2.27361 35.149 35.149 2.27368 75.5512 2.27368L77.6093 2.29481C118.616 2.29481 150.722 35.3054 150.722 77.4488V179.642C150.722 193.702 145.866 200.253 135.44 200.253Z" fill="url(#paint0_linear_67_271)"/>
<path d="M75.5301 4.55158L77.5882 4.57271H77.6094H77.6305C96.9441 4.57271 114.859 12.1291 128.078 25.8515C141.213 39.4893 148.448 57.814 148.448 77.4488V179.642C148.448 181.598 148.448 187.557 146.259 191.982C144.235 196.073 140.799 197.979 135.44 197.979C130.081 197.979 127.453 194.269 123.59 187.714C119.736 181.167 114.935 173.019 104.006 172.791C103.9 172.791 103.799 172.791 103.698 172.791C94.9029 172.791 91.3022 180.246 88.4072 186.239C84.8995 193.504 82.3892 197.954 75.3695 197.962H75.3484C68.9584 197.962 66.6636 193.99 63.1601 186.97C59.9989 180.631 56.0601 172.745 46.1033 172.745C34.6292 172.745 31.6963 181.831 29.7565 187.841C27.5546 194.662 26.2107 197.941 19.7616 197.941H19.7235C14.5676 197.928 10.8359 196.115 8.30865 192.401C5.85324 188.787 4.55581 183.399 4.55581 176.81V75.5597C4.55581 56.5969 11.9432 38.7666 25.3528 25.357C38.7582 11.9516 56.58 4.56849 75.5343 4.56004M75.5512 0C33.8263 0 0 33.8263 0 75.5512V176.802C0 190.981 5.53206 202.455 19.7066 202.484C19.7235 202.484 19.7362 202.484 19.7531 202.484C39.1766 202.484 29.1902 177.288 46.0948 177.288C61.0977 177.288 57.1758 202.505 75.3441 202.505C75.3526 202.505 75.3611 202.505 75.3653 202.505C94.1379 202.484 90.6387 177.334 103.693 177.334C103.765 177.334 103.837 177.334 103.909 177.334C120.729 177.685 118.667 202.522 135.436 202.522C152.205 202.522 152.996 187.405 152.996 179.638V77.4445C153 34.6757 120.404 0.0211308 77.6305 0.0211308L75.5512 0Z" fill="#0E0E0E"/>
<g filter="url(#filter0_d_67_271)">
<path d="M7.64513 53.5203H145.287C145.287 53.5203 143.022 94.5183 119.453 94.9705C78.3997 95.7566 82.4356 59.8257 82.4356 59.8257H67.7793C67.7793 59.8257 66.2663 94.9917 33.1796 94.9705C6.8802 94.9494 7.64513 53.5203 7.64513 53.5203Z" fill="url(#paint1_linear_67_271)"/>
<path d="M7.64513 53.5203H145.287C145.287 53.5203 143.022 94.5183 119.453 94.9705C78.3997 95.7566 82.4356 59.8257 82.4356 59.8257H67.7793C67.7793 59.8257 66.2663 94.9917 33.1796 94.9705C6.8802 94.9494 7.64513 53.5203 7.64513 53.5203Z" stroke="#0E0E0E" stroke-width="2.52725" stroke-miterlimit="10"/>
</g>
<path d="M83.8134 93.259C83.8388 93.4788 83.8515 93.7027 83.8515 93.9267C83.8515 97.9881 79.414 101.331 74.0172 101.331C68.6203 101.331 64.1829 97.9881 64.1829 93.9267C64.1829 93.6732 64.1998 93.4196 64.2336 93.166" stroke="#0E0E0E" stroke-width="4.55158" stroke-miterlimit="10"/>
<path d="M18.5022 53.5203H37.0847L59.9482 82.2117L53.0258 90.1738L43.8634 93.5548L18.5022 53.5203Z" fill="url(#paint2_linear_67_271)"/>
<path d="M95.6931 55.6672H114.276L137.139 84.3545L130.217 92.3166L121.054 95.6975L95.6931 55.6672Z" fill="url(#paint3_linear_67_271)"/>
<path d="M7.64513 53.5203H145.287C145.287 53.5203 143.022 94.5183 119.453 94.9705C78.3997 95.7566 82.4356 59.8257 82.4356 59.8257H67.7793C67.7793 59.8257 66.2663 94.9917 33.1796 94.9705C6.8802 94.9494 7.64513 53.5203 7.64513 53.5203Z" stroke="#0E0E0E" stroke-width="4.04444" stroke-miterlimit="10"/>
</g>
<defs>
<filter id="filter0_d_67_271" x="3.42083" y="52.2566" width="146.16" height="50.7521" filterUnits="userSpaceOnUse" color-interpolation-filters="sRGB">
<feFlood flood-opacity="0" result="BackgroundImageFix"/>
<feColorMatrix in="SourceAlpha" type="matrix" values="0 0 0 0 0 0 0 0 0 0 0 0 0 0 0 0 0 0 127 0" result="hardAlpha"/>
<feOffset dy="3.80355"/>
<feGaussianBlur stdDeviation="1.47916"/>
<feComposite in2="hardAlpha" operator="out"/>
<feColorMatrix type="matrix" values="0 0 0 0 0.102724 0 0 0 0 0 0 0 0 0 0 0 0 0 0.25 0"/>
<feBlend mode="normal" in2="BackgroundImageFix" result="effect1_dropShadow_67_271"/>
<feBlend mode="normal" in="SourceGraphic" in2="effect1_dropShadow_67_271" result="shape"/>
</filter>
<linearGradient id="paint0_linear_67_271" x1="76.4999" y1="2.27368" x2="76.4999" y2="200.253" gradientUnits="userSpaceOnUse">
<stop offset="0.75" stop-color="#FFF9ED"/>
<stop offset="1" stop-color="#FFB6B6"/>
</linearGradient>
<linearGradient id="paint1_linear_67_271" x1="76.5713" y1="53.5203" x2="76.3588" y2="94.9832" gradientUnits="userSpaceOnUse">
<stop stop-color="#0E0E0E"/>
<stop offset="0.661281" stop-color="#0E0E0E"/>
<stop offset="1" stop-color="#A30D0B"/>
</linearGradient>
<linearGradient id="paint2_linear_67_271" x1="26.8713" y1="53.5203" x2="51.5791" y2="93.5548" gradientUnits="userSpaceOnUse">
<stop stop-color="#FFACAC"/>
<stop offset="0.326923" stop-color="white"/>
<stop offset="1" stop-color="white"/>
</linearGradient>
<linearGradient id="paint3_linear_67_271" x1="103.677" y1="55.6672" x2="129.156" y2="95.6975" gradientUnits="userSpaceOnUse">
<stop stop-color="#FFACAC"/>
<stop offset="0.326923" stop-color="white"/>
<stop offset="1" stop-color="white"/>
</linearGradient>
<clipPath id="clip0_67_271">
<rect width="153" height="202.526" fill="white"/>
</clipPath>
</defs>
</svg>
