<svg width="967" height="786" viewBox="0 0 967 786" fill="none" xmlns="http://www.w3.org/2000/svg">
<ellipse cx="287.243" cy="340.653" rx="124.142" ry="228.5" transform="rotate(32.0562 287.243 340.653)" fill="url(#paint0_linear_63_122)"/>
<path d="M530.566 2.13044C417.366 -12.2696 416.399 114.464 430.066 179.63L402.066 193.63L408.566 244.13C419.232 238.63 445.466 222.23 465.066 200.63C489.566 173.63 474.066 56.1304 526.566 45.6304C579.066 35.1304 581.066 119.63 605.066 170.63C629.066 221.63 713.066 188.63 781.066 214.63C849.066 240.63 809.566 263.13 781.066 275.63C758.266 285.63 686.232 312.464 653.066 324.63L628.566 343.13C643.066 381.13 680.266 466.73 713.066 505.13C754.066 553.13 808.566 478.13 823.066 457.13C837.566 436.13 858.566 451.13 915.066 483.13C971.566 515.13 910.566 612.63 881.066 634.63C857.466 652.23 759.232 616.297 713.066 596.13L713.066 629.63C750.732 644.297 837.866 673.63 885.066 673.63C944.066 673.63 1032.07 501.13 885.066 431.63C738.066 362.13 803.066 539.63 713.066 431.63C623.066 323.63 782.566 334.13 849.066 290.13C915.566 246.13 805.566 159.13 695.066 159.13C584.566 159.13 672.066 20.1304 530.566 2.13044Z" fill="url(#paint1_linear_63_122)" stroke="url(#paint2_linear_63_122)"/>
<path d="M324.41 153.971C276.746 166.394 221.809 211.242 180.968 276.46C140.126 341.678 123.765 410.682 133.398 458.987L118.772 482.341L166.49 512.223C219.275 545.128 311.274 493.185 372.055 396.126C432.837 299.067 439.401 193.621 386.752 160.499L339.034 130.617L324.41 153.971Z" fill="url(#paint3_linear_63_122)"/>
<ellipse cx="233.001" cy="306.685" rx="124.142" ry="228.5" transform="rotate(32.0562 233.001 306.685)" fill="url(#paint4_linear_63_122)"/>
<ellipse cx="226.49" cy="302.608" rx="124.142" ry="228.5" transform="rotate(32.0562 226.49 302.608)" fill="url(#paint5_linear_63_122)"/>
<ellipse cx="223.292" cy="301.196" rx="49" ry="90" transform="rotate(32.0562 223.292 301.196)" fill="url(#paint6_linear_63_122)" stroke="#801212" stroke-opacity="0.1" stroke-width="9"/>
<path d="M167.033 391.033C179.671 398.947 178.035 424.336 163.379 447.74C148.722 471.143 126.596 483.7 113.958 475.786C101.32 467.871 102.956 442.483 117.612 419.079C132.268 395.675 154.395 383.119 167.033 391.033Z" fill="#FF888C"/>
<path d="M147.735 278.656C160.373 286.57 158.737 311.959 144.08 335.363C129.424 358.766 107.298 371.323 94.6595 363.409C82.0217 355.494 83.6576 330.106 98.3138 306.702C112.97 283.298 135.097 270.742 147.735 278.656Z" fill="#FF888C"/>
<path d="M276.559 359.33C289.197 367.245 287.561 392.633 272.904 416.037C258.248 439.441 236.122 451.997 223.484 444.083C210.846 436.168 212.482 410.78 227.138 387.376C241.794 363.973 263.921 351.416 276.559 359.33Z" fill="#FF888C"/>
<path d="M206.097 327.549C210.227 330.135 209.692 338.431 204.903 346.078C200.114 353.725 192.884 357.828 188.755 355.242C184.625 352.656 185.16 344.361 189.949 336.713C194.738 329.066 201.968 324.963 206.097 327.549Z" fill="#FF888C"/>
<path d="M199.791 290.829C203.92 293.415 203.386 301.711 198.597 309.358C193.808 317.005 186.578 321.108 182.449 318.522C178.319 315.936 178.854 307.64 183.643 299.993C188.432 292.346 195.661 288.244 199.791 290.829Z" fill="#FF888C"/>
<path d="M241.885 317.19C246.014 319.776 245.48 328.072 240.691 335.719C235.902 343.366 228.672 347.469 224.543 344.883C220.413 342.297 220.948 334.001 225.737 326.354C230.526 318.707 237.755 314.604 241.885 317.19Z" fill="#FF888C"/>
<path d="M223.55 252.889C227.68 255.475 227.145 263.771 222.356 271.419C217.567 279.066 210.337 283.169 206.207 280.583C202.078 277.997 202.613 269.701 207.402 262.054C212.191 254.407 219.421 250.304 223.55 252.889Z" fill="#FF888C"/>
<path d="M265.644 279.25C269.774 281.836 269.239 290.132 264.45 297.779C259.661 305.426 252.431 309.529 248.302 306.944C244.172 304.358 244.707 296.062 249.496 288.415C254.285 280.767 261.515 276.664 265.644 279.25Z" fill="#FF888C"/>
<path d="M220.448 162.545C233.086 170.459 231.45 195.848 216.793 219.251C202.137 242.655 180.011 255.212 167.372 247.297C154.735 239.383 156.371 213.995 171.027 190.591C185.683 167.187 207.809 154.631 220.448 162.545Z" fill="#FF888C"/>
<path d="M349.272 243.219C361.91 251.133 360.274 276.522 345.617 299.926C330.961 323.329 308.835 335.886 296.197 327.972C283.559 320.057 285.195 294.669 299.851 271.265C314.507 247.861 336.634 235.305 349.272 243.219Z" fill="#FF888C"/>
<path d="M260.206 241.147C264.335 243.733 263.8 252.028 259.012 259.675C254.223 267.322 246.993 271.425 242.863 268.839C238.734 266.253 239.269 257.957 244.058 250.31C248.847 242.663 256.076 238.561 260.206 241.147Z" fill="#FF888C"/>
<path d="M332.627 126.604C345.265 134.519 343.629 159.907 328.973 183.311C314.317 206.715 292.19 219.271 279.552 211.357C266.914 203.443 268.55 178.054 283.206 154.65C297.863 131.247 319.989 118.69 332.627 126.604Z" fill="#FF888C"/>
<path d="M169.575 392.625C182.213 400.54 180.577 425.928 165.921 449.332C151.265 472.736 129.138 485.292 116.5 477.378C103.862 469.463 105.498 444.075 120.154 420.671C134.811 397.268 156.937 384.711 169.575 392.625Z" fill="url(#paint7_linear_63_122)"/>
<path d="M150.277 280.248C162.915 288.163 161.279 313.551 146.623 336.955C131.966 360.359 109.84 372.915 97.2019 365.001C84.564 357.086 86.2 331.698 100.856 308.294C115.512 284.891 137.639 272.334 150.277 280.248Z" fill="url(#paint8_linear_63_122)"/>
<path d="M279.101 360.922C291.739 368.837 290.103 394.225 275.447 417.629C260.791 441.033 238.664 453.59 226.026 445.675C213.388 437.761 215.024 412.372 229.68 388.969C244.337 365.565 266.463 353.008 279.101 360.922Z" fill="url(#paint9_linear_63_122)"/>
<path d="M208.64 329.141C212.769 331.727 212.234 340.023 207.446 347.67C202.657 355.317 195.427 359.42 191.297 356.835C187.168 354.249 187.702 345.953 192.491 338.306C197.28 330.658 204.51 326.555 208.64 329.141Z" fill="url(#paint10_linear_63_122)"/>
<path d="M202.333 292.422C206.463 295.008 205.928 303.303 201.139 310.95C196.35 318.597 189.12 322.701 184.991 320.115C180.862 317.528 181.396 309.232 186.185 301.585C190.974 293.938 198.204 289.836 202.333 292.422Z" fill="url(#paint11_linear_63_122)"/>
<path d="M244.427 318.783C248.556 321.369 248.022 329.664 243.234 337.311C238.445 344.958 231.215 349.061 227.085 346.475C222.956 343.889 223.49 335.593 228.279 327.946C233.068 320.299 240.298 316.197 244.427 318.783Z" fill="url(#paint12_linear_63_122)"/>
<path d="M226.093 254.482C230.222 257.068 229.687 265.364 224.898 273.011C220.109 280.658 212.879 284.761 208.75 282.175C204.621 279.589 205.155 271.293 209.944 263.646C214.733 255.999 221.963 251.896 226.093 254.482Z" fill="url(#paint13_linear_63_122)"/>
<path d="M268.187 280.842C272.316 283.429 271.781 291.725 266.992 299.372C262.204 307.019 254.974 311.122 250.844 308.536C246.714 305.95 247.249 297.654 252.038 290.007C256.827 282.36 264.057 278.256 268.187 280.842Z" fill="url(#paint14_linear_63_122)"/>
<path d="M222.99 164.137C235.628 172.051 233.992 197.44 219.336 220.844C204.679 244.247 182.553 256.804 169.915 248.89C157.277 240.975 158.913 215.587 173.569 192.183C188.225 168.779 210.352 156.223 222.99 164.137Z" fill="url(#paint15_linear_63_122)"/>
<path d="M351.814 244.811C364.452 252.726 362.816 278.114 348.16 301.518C333.504 324.922 311.377 337.478 298.739 329.564C286.101 321.649 287.737 296.261 302.393 272.857C317.05 249.454 339.176 236.897 351.814 244.811Z" fill="url(#paint16_linear_63_122)"/>
<path d="M262.748 242.739C266.877 245.325 266.343 253.62 261.554 261.267C256.765 268.914 249.535 273.017 245.406 270.432C241.276 267.846 241.811 259.55 246.6 251.902C251.389 244.255 258.619 240.153 262.748 242.739Z" fill="url(#paint17_linear_63_122)"/>
<path d="M335.17 128.197C347.808 136.111 346.172 161.499 331.515 184.903C316.859 208.307 294.733 220.864 282.095 212.949C269.457 205.035 271.093 179.646 285.749 156.243C300.405 132.839 322.532 120.283 335.17 128.197Z" fill="url(#paint18_linear_63_122)"/>
<ellipse cx="514.656" cy="538.695" rx="165.268" ry="228.5" transform="rotate(113.165 514.656 538.695)" fill="url(#paint19_linear_63_122)"/>
<path d="M140.899 761.593C321.598 798.424 255.846 588.657 380.226 606.104C378.065 592.778 446.672 566.689 352.066 558.005C257.459 549.321 238.759 734.826 143.957 728.278C68.1151 723.039 111.361 612.58 142.463 558.005L93.2259 541.425C48.884 602.538 -3.66029 732.129 140.899 761.593Z" fill="url(#paint20_linear_63_122)" stroke="url(#paint21_linear_63_122)"/>
<path d="M713.647 525.977C698.411 470.511 648.577 416.235 577.83 385.964C507.083 355.694 433.413 357.126 382.773 384.405L357.439 373.565L327.954 442.475C295.497 518.657 354.467 616.874 459.755 661.923C565.042 706.973 676.804 681.808 709.496 605.726L738.981 536.816L713.647 525.977Z" fill="url(#paint22_linear_63_122)"/>
<ellipse cx="548.172" cy="460.362" rx="165.268" ry="228.5" transform="rotate(113.165 548.172 460.362)" fill="url(#paint23_linear_63_122)"/>
<ellipse cx="552.195" cy="450.96" rx="165.268" ry="228.5" transform="rotate(113.165 552.195 450.96)" fill="url(#paint24_linear_63_122)"/>
<ellipse cx="553.547" cy="446.528" rx="65.2329" ry="90" transform="rotate(113.165 553.547 446.528)" fill="url(#paint25_linear_63_122)" stroke="#801212" stroke-opacity="0.15" stroke-width="9"/>
<path d="M456.093 404.83C448.284 423.082 421.372 429.072 395.984 418.209C370.596 407.346 356.346 383.744 364.155 365.493C371.965 347.242 398.876 341.253 424.264 352.115C449.652 362.978 463.902 386.579 456.093 404.83Z" fill="#FF888C"/>
<path d="M574.041 345.248C566.231 363.499 539.32 369.488 513.932 358.625C488.544 347.763 474.294 324.161 482.103 305.91C489.912 287.659 516.824 281.669 542.212 292.532C567.6 303.394 581.85 326.996 574.041 345.248Z" fill="#FF888C"/>
<path d="M494.439 531.288C486.63 549.539 459.719 555.529 434.331 544.667C408.943 533.804 394.693 510.202 402.502 491.95C410.311 473.7 437.222 467.71 462.61 478.573C487.998 489.435 502.248 513.037 494.439 531.288Z" fill="#FF888C"/>
<path d="M524.929 433.435C522.377 439.398 513.583 441.355 505.288 437.806C496.992 434.256 492.336 426.544 494.887 420.581C497.439 414.617 506.233 412.66 514.528 416.209C522.824 419.759 527.48 427.471 524.929 433.435Z" fill="#FF888C"/>
<path d="M563.468 413.965C560.917 419.928 552.124 421.886 543.828 418.336C535.533 414.787 530.876 407.075 533.428 401.111C535.98 395.148 544.773 393.191 553.069 396.74C561.364 400.29 566.02 408.001 563.468 413.965Z" fill="#FF888C"/>
<path d="M537.458 474.754C534.907 480.718 526.114 482.675 517.818 479.126C509.523 475.576 504.866 467.864 507.418 461.901C509.97 455.937 518.763 453.98 527.059 457.529C535.354 461.079 540.01 468.791 537.458 474.754Z" fill="#FF888C"/>
<path d="M604.625 431.574C602.073 437.538 593.279 439.495 584.984 435.946C576.688 432.396 572.032 424.684 574.583 418.721C577.135 412.757 585.929 410.8 594.224 414.349C602.52 417.899 607.176 425.611 604.625 431.574Z" fill="#FF888C"/>
<path d="M578.615 492.364C576.063 498.327 567.269 500.285 558.974 496.735C550.678 493.186 546.022 485.474 548.573 479.51C551.125 473.547 559.919 471.589 568.214 475.139C576.51 478.688 581.166 486.4 578.615 492.364Z" fill="#FF888C"/>
<path d="M699.996 399.14C692.186 417.391 665.275 423.38 639.887 412.518C614.499 401.655 600.249 378.054 608.058 359.803C615.867 341.551 642.779 335.561 668.167 346.424C693.555 357.287 707.805 380.889 699.996 399.14Z" fill="#FF888C"/>
<path d="M620.394 585.18C612.585 603.432 585.673 609.422 560.285 598.559C534.897 587.696 520.647 564.094 528.456 545.843C536.266 527.592 563.177 521.602 588.565 532.465C613.953 543.328 628.203 566.929 620.394 585.18Z" fill="#FF888C"/>
<path d="M618.656 473.538C616.104 479.501 607.311 481.458 599.016 477.909C590.72 474.36 586.064 466.648 588.615 460.684C591.167 454.721 599.961 452.764 608.256 456.313C616.552 459.862 621.208 467.574 618.656 473.538Z" fill="#FF888C"/>
<path d="M742.939 527.564C735.13 545.815 708.218 551.805 682.83 540.942C657.442 530.079 643.192 506.477 651.001 488.226C658.811 469.975 685.722 463.986 711.11 474.848C736.498 485.711 750.748 509.312 742.939 527.564Z" fill="#FF888C"/>
<path d="M454.523 408.502C446.713 426.753 419.802 432.743 394.414 421.881C369.026 411.018 354.776 387.416 362.585 369.165C370.394 350.914 397.306 344.924 422.693 355.787C448.081 366.65 462.331 390.251 454.523 408.502Z" fill="url(#paint26_linear_63_122)"/>
<path d="M572.47 348.919C564.661 367.17 537.749 373.16 512.362 362.297C486.974 351.434 472.724 327.833 480.532 309.582C488.342 291.331 515.253 285.34 540.641 296.203C566.029 307.066 580.279 330.668 572.47 348.919Z" fill="url(#paint27_linear_63_122)"/>
<path d="M492.869 534.96C485.06 553.211 458.148 559.201 432.76 548.338C407.372 537.475 393.122 513.873 400.931 495.622C408.741 477.371 435.652 471.382 461.04 482.244C486.427 493.107 500.678 516.708 492.869 534.96Z" fill="url(#paint28_linear_63_122)"/>
<path d="M523.358 437.106C520.807 443.07 512.013 445.027 503.717 441.477C495.422 437.928 490.765 430.216 493.317 424.252C495.869 418.289 504.662 416.332 512.958 419.881C521.253 423.431 525.91 431.143 523.358 437.106Z" fill="url(#paint29_linear_63_122)"/>
<path d="M561.898 417.636C559.346 423.6 550.553 425.557 542.258 422.008C533.962 418.459 529.306 410.747 531.857 404.783C534.409 398.819 543.203 396.862 551.498 400.412C559.793 403.961 564.449 411.673 561.898 417.636Z" fill="url(#paint30_linear_63_122)"/>
<path d="M535.888 478.426C533.336 484.389 524.543 486.347 516.248 482.797C507.952 479.248 503.296 471.536 505.847 465.572C508.399 459.609 517.193 457.652 525.488 461.201C533.783 464.751 538.439 472.462 535.888 478.426Z" fill="url(#paint31_linear_63_122)"/>
<path d="M603.054 435.246C600.503 441.21 591.709 443.167 583.413 439.617C575.118 436.068 570.461 428.356 573.013 422.392C575.565 416.429 584.358 414.472 592.654 418.021C600.949 421.57 605.606 429.283 603.054 435.246Z" fill="url(#paint32_linear_63_122)"/>
<path d="M577.044 496.036C574.493 501.999 565.699 503.956 557.403 500.407C549.108 496.857 544.451 489.145 547.003 483.182C549.555 477.218 558.348 475.261 566.644 478.81C574.939 482.36 579.596 490.072 577.044 496.036Z" fill="url(#paint33_linear_63_122)"/>
<path d="M698.425 402.812C690.616 421.063 663.704 427.052 638.316 416.189C612.929 405.327 598.678 381.725 606.487 363.474C614.296 345.223 641.208 339.233 666.596 350.096C691.984 360.958 706.234 384.561 698.425 402.812Z" fill="url(#paint34_linear_63_122)"/>
<path d="M618.824 588.852C611.015 607.103 584.103 613.092 558.715 602.23C533.327 591.367 519.077 567.766 526.886 549.514C534.695 531.263 561.607 525.274 586.994 536.137C612.382 547 626.633 570.601 618.824 588.852Z" fill="url(#paint35_linear_63_122)"/>
<path d="M617.085 477.209C614.534 483.173 605.741 485.13 597.445 481.581C589.15 478.032 584.494 470.319 587.045 464.356C589.597 458.392 598.39 456.435 606.686 459.985C614.981 463.534 619.637 471.246 617.085 477.209Z" fill="url(#paint36_linear_63_122)"/>
<path d="M741.369 531.235C733.559 549.486 706.648 555.476 681.26 544.614C655.872 533.751 641.622 510.149 649.431 491.898C657.24 473.647 684.152 467.657 709.539 478.52C734.927 489.383 749.177 512.984 741.369 531.235Z" fill="url(#paint37_linear_63_122)"/>
<defs>
<linearGradient id="paint0_linear_63_122" x1="287.243" y1="112.153" x2="287.243" y2="569.153" gradientUnits="userSpaceOnUse">
<stop stop-color="#FFF9ED"/>
<stop offset="1" stop-color="#745353"/>
</linearGradient>
<linearGradient id="paint1_linear_63_122" x1="402.066" y1="33.1524" x2="965.57" y2="641.478" gradientUnits="userSpaceOnUse">
<stop offset="0.134615"/>
<stop offset="0.605769" stop-color="#A30D0B"/>
<stop offset="0.850962" stop-color="#FFF9ED"/>
</linearGradient>
<linearGradient id="paint2_linear_63_122" x1="683.818" y1="673.63" x2="683.818" y2="0.999995" gradientUnits="userSpaceOnUse">
<stop stop-color="#A30D0B"/>
<stop offset="0.807692" stop-color="#FFF9ED"/>
<stop offset="1"/>
<stop offset="1" stop-color="#FFC0BC"/>
</linearGradient>
<linearGradient id="paint3_linear_63_122" x1="166.38" y1="512.155" x2="386.642" y2="160.431" gradientUnits="userSpaceOnUse">
<stop offset="0.0001" stop-color="#A30D0B"/>
<stop offset="0.591346"/>
</linearGradient>
<linearGradient id="paint4_linear_63_122" x1="233.001" y1="78.1852" x2="233.001" y2="535.185" gradientUnits="userSpaceOnUse">
<stop stop-color="#997B7B"/>
<stop offset="1" stop-color="#332929"/>
</linearGradient>
<linearGradient id="paint5_linear_63_122" x1="262.273" y1="531.108" x2="190.708" y2="74.108" gradientUnits="userSpaceOnUse">
<stop stop-color="#FFF9ED"/>
<stop offset="0.264423" stop-color="#C8AAAA"/>
<stop offset="0.288164" stop-color="#D3B9B6"/>
<stop offset="0.507237" stop-color="white"/>
<stop offset="0.913462" stop-color="#FFF9ED"/>
</linearGradient>
<linearGradient id="paint6_linear_63_122" x1="237.416" y1="391.196" x2="209.286" y2="211.177" gradientUnits="userSpaceOnUse">
<stop stop-color="#FFF9ED"/>
<stop offset="0.0001" stop-color="#D3B9B6"/>
<stop offset="0.913462" stop-color="white"/>
</linearGradient>
<linearGradient id="paint7_linear_63_122" x1="289.34" y1="99.4966" x2="162.33" y2="506.078" gradientUnits="userSpaceOnUse">
<stop stop-color="#714545"/>
<stop offset="1"/>
</linearGradient>
<linearGradient id="paint8_linear_63_122" x1="289.34" y1="99.4966" x2="162.33" y2="506.078" gradientUnits="userSpaceOnUse">
<stop stop-color="#714545"/>
<stop offset="1"/>
</linearGradient>
<linearGradient id="paint9_linear_63_122" x1="289.34" y1="99.4966" x2="162.33" y2="506.078" gradientUnits="userSpaceOnUse">
<stop stop-color="#714545"/>
<stop offset="1"/>
</linearGradient>
<linearGradient id="paint10_linear_63_122" x1="289.34" y1="99.4966" x2="162.33" y2="506.078" gradientUnits="userSpaceOnUse">
<stop stop-color="#714545"/>
<stop offset="1"/>
</linearGradient>
<linearGradient id="paint11_linear_63_122" x1="289.34" y1="99.4966" x2="162.33" y2="506.078" gradientUnits="userSpaceOnUse">
<stop stop-color="#714545"/>
<stop offset="1"/>
</linearGradient>
<linearGradient id="paint12_linear_63_122" x1="289.34" y1="99.4966" x2="162.33" y2="506.078" gradientUnits="userSpaceOnUse">
<stop stop-color="#714545"/>
<stop offset="1"/>
</linearGradient>
<linearGradient id="paint13_linear_63_122" x1="289.34" y1="99.4966" x2="162.33" y2="506.078" gradientUnits="userSpaceOnUse">
<stop stop-color="#714545"/>
<stop offset="1"/>
</linearGradient>
<linearGradient id="paint14_linear_63_122" x1="289.34" y1="99.4966" x2="162.33" y2="506.078" gradientUnits="userSpaceOnUse">
<stop stop-color="#714545"/>
<stop offset="1"/>
</linearGradient>
<linearGradient id="paint15_linear_63_122" x1="289.34" y1="99.4966" x2="162.33" y2="506.078" gradientUnits="userSpaceOnUse">
<stop stop-color="#714545"/>
<stop offset="1"/>
</linearGradient>
<linearGradient id="paint16_linear_63_122" x1="289.34" y1="99.4966" x2="162.33" y2="506.078" gradientUnits="userSpaceOnUse">
<stop stop-color="#714545"/>
<stop offset="1"/>
</linearGradient>
<linearGradient id="paint17_linear_63_122" x1="289.34" y1="99.4966" x2="162.33" y2="506.078" gradientUnits="userSpaceOnUse">
<stop stop-color="#714545"/>
<stop offset="1"/>
</linearGradient>
<linearGradient id="paint18_linear_63_122" x1="289.34" y1="99.4966" x2="162.33" y2="506.078" gradientUnits="userSpaceOnUse">
<stop stop-color="#714545"/>
<stop offset="1"/>
</linearGradient>
<linearGradient id="paint19_linear_63_122" x1="349.388" y1="538.695" x2="679.924" y2="538.695" gradientUnits="userSpaceOnUse">
<stop offset="0.629808" stop-color="#745353"/>
<stop offset="1" stop-color="#FFF9ED"/>
</linearGradient>
<linearGradient id="paint20_linear_63_122" x1="230.719" y1="546.866" x2="210.294" y2="769.379" gradientUnits="userSpaceOnUse">
<stop offset="0.221154"/>
<stop offset="0.509615" stop-color="#A30D0B"/>
<stop offset="0.932692" stop-color="#FFF9ED"/>
</linearGradient>
<linearGradient id="paint21_linear_63_122" x1="228.48" y1="553.841" x2="208.709" y2="769.233" gradientUnits="userSpaceOnUse">
<stop offset="0.0673077" stop-color="#FFF9ED"/>
<stop offset="0.490385" stop-color="#A30D0B"/>
<stop offset="0.927885"/>
</linearGradient>
<linearGradient id="paint22_linear_63_122" x1="328.021" y1="442.318" x2="709.563" y2="605.569" gradientUnits="userSpaceOnUse">
<stop offset="0.475962"/>
<stop offset="0.798077" stop-color="#A30D0B"/>
</linearGradient>
<linearGradient id="paint23_linear_63_122" x1="548.172" y1="231.862" x2="548.172" y2="688.862" gradientUnits="userSpaceOnUse">
<stop stop-color="#997B7B"/>
<stop offset="1" stop-color="#332929"/>
</linearGradient>
<linearGradient id="paint24_linear_63_122" x1="599.832" y1="679.46" x2="545.509" y2="217.643" gradientUnits="userSpaceOnUse">
<stop stop-color="#FFF9ED"/>
<stop offset="0.264423" stop-color="#C8AAAA"/>
<stop offset="0.288164" stop-color="#D3B9B6"/>
<stop offset="0.507237" stop-color="white"/>
<stop offset="0.913462" stop-color="#FFF9ED"/>
</linearGradient>
<linearGradient id="paint25_linear_63_122" x1="572.35" y1="536.528" x2="550.998" y2="354.621" gradientUnits="userSpaceOnUse">
<stop stop-color="#FFF9ED"/>
<stop offset="0.0001" stop-color="#D3B9B6"/>
<stop offset="0.913462" stop-color="white"/>
</linearGradient>
<linearGradient id="paint26_linear_63_122" x1="769.687" y1="465.051" x2="347.075" y2="375.141" gradientUnits="userSpaceOnUse">
<stop stop-color="#714545"/>
<stop offset="1"/>
</linearGradient>
<linearGradient id="paint27_linear_63_122" x1="769.687" y1="465.051" x2="347.075" y2="375.141" gradientUnits="userSpaceOnUse">
<stop stop-color="#714545"/>
<stop offset="1"/>
</linearGradient>
<linearGradient id="paint28_linear_63_122" x1="769.687" y1="465.051" x2="347.075" y2="375.141" gradientUnits="userSpaceOnUse">
<stop stop-color="#714545"/>
<stop offset="1"/>
</linearGradient>
<linearGradient id="paint29_linear_63_122" x1="769.687" y1="465.051" x2="347.075" y2="375.141" gradientUnits="userSpaceOnUse">
<stop stop-color="#714545"/>
<stop offset="1"/>
</linearGradient>
<linearGradient id="paint30_linear_63_122" x1="769.687" y1="465.051" x2="347.075" y2="375.141" gradientUnits="userSpaceOnUse">
<stop stop-color="#714545"/>
<stop offset="1"/>
</linearGradient>
<linearGradient id="paint31_linear_63_122" x1="769.687" y1="465.051" x2="347.075" y2="375.141" gradientUnits="userSpaceOnUse">
<stop stop-color="#714545"/>
<stop offset="1"/>
</linearGradient>
<linearGradient id="paint32_linear_63_122" x1="769.687" y1="465.051" x2="347.075" y2="375.141" gradientUnits="userSpaceOnUse">
<stop stop-color="#714545"/>
<stop offset="1"/>
</linearGradient>
<linearGradient id="paint33_linear_63_122" x1="769.687" y1="465.051" x2="347.075" y2="375.141" gradientUnits="userSpaceOnUse">
<stop stop-color="#714545"/>
<stop offset="1"/>
</linearGradient>
<linearGradient id="paint34_linear_63_122" x1="769.687" y1="465.051" x2="347.075" y2="375.141" gradientUnits="userSpaceOnUse">
<stop stop-color="#714545"/>
<stop offset="1"/>
</linearGradient>
<linearGradient id="paint35_linear_63_122" x1="769.687" y1="465.051" x2="347.075" y2="375.141" gradientUnits="userSpaceOnUse">
<stop stop-color="#714545"/>
<stop offset="1"/>
</linearGradient>
<linearGradient id="paint36_linear_63_122" x1="769.687" y1="465.051" x2="347.075" y2="375.141" gradientUnits="userSpaceOnUse">
<stop stop-color="#714545"/>
<stop offset="1"/>
</linearGradient>
<linearGradient id="paint37_linear_63_122" x1="769.687" y1="465.051" x2="347.075" y2="375.141" gradientUnits="userSpaceOnUse">
<stop stop-color="#714545"/>
<stop offset="1"/>
</linearGradient>
</defs>
</svg>
