<?xml version="1.0" encoding="UTF-8"?><svg xmlns="http://www.w3.org/2000/svg" xmlns:xlink="http://www.w3.org/1999/xlink" viewBox="0 0 1600 900"><defs><style>.cls-1{fill:url(#linear-gradient-13);}.cls-2{fill:url(#linear-gradient-2);}.cls-3{fill:url(#linear-gradient-10);}.cls-4{fill:url(#linear-gradient-12);}.cls-5{stroke-width:3.72px;}.cls-5,.cls-6,.cls-7,.cls-8{fill:none;}.cls-5,.cls-7,.cls-8{stroke:#0e0e0e;stroke-miterlimit:10;}.cls-9{fill:url(#linear-gradient-4);}.cls-10{fill:url(#linear-gradient-3);}.cls-11{fill:url(#linear-gradient-5);}.cls-7{stroke-width:2.32px;}.cls-12{isolation:isolate;}.cls-8{stroke-width:4.19px;}.cls-13{fill:url(#linear-gradient-8);}.cls-14{fill:url(#linear-gradient-7);}.cls-15{fill:url(#linear-gradient-9);}.cls-16{fill:#0e0e0e;}.cls-17{fill:url(#linear-gradient-11);}.cls-18{fill:url(#linear-gradient-6);}.cls-19{fill:url(#New_Pattern);mix-blend-mode:overlay;opacity:.15;}.cls-20{fill:url(#linear-gradient);}</style><linearGradient id="linear-gradient" x1="800" y1="900" x2="800" y2="0" gradientUnits="userSpaceOnUse"><stop offset="0" stop-color="#0e0e0e"/><stop offset="1" stop-color="#a30d0b"/></linearGradient><linearGradient id="linear-gradient-2" x1="-206.75" y1="-16693.47" x2="-206.75" y2="-16511.36" gradientTransform="translate(506.75 -16602.41) scale(1 -1)" gradientUnits="userSpaceOnUse"><stop offset=".75" stop-color="#fff9ed"/><stop offset="1" stop-color="#ffb6b6"/></linearGradient><linearGradient id="linear-gradient-3" x1="-206.79" y1="-16646.32" x2="-206.99" y2="-16608.18" gradientTransform="translate(506.75 -16602.41) scale(1 -1)" gradientUnits="userSpaceOnUse"><stop offset="0" stop-color="#0e0e0e"/><stop offset=".66" stop-color="#0e0e0e"/><stop offset="1" stop-color="#a30d0b"/></linearGradient><linearGradient id="linear-gradient-4" x1="-250.06" y1="-16647.76" x2="-227.33" y2="-16610.93" gradientTransform="translate(506.75 -16602.41) scale(1 -1)" gradientUnits="userSpaceOnUse"><stop offset="0" stop-color="#fff"/><stop offset=".67" stop-color="#fff"/><stop offset="1" stop-color="#ffacac"/></linearGradient><linearGradient id="linear-gradient-5" x1="-506.75" y1="-16693.47" x2="-506.75" y2="-16511.36" gradientTransform="translate(506.75 -16602.41) scale(1 -1)" gradientUnits="userSpaceOnUse"><stop offset=".75" stop-color="#fff9ed"/><stop offset="1" stop-color="#ffb6b6"/></linearGradient><linearGradient id="linear-gradient-6" x1="-506.78" y1="-16646.32" x2="-506.98" y2="-16608.18" gradientTransform="translate(506.75 -16602.41) scale(1 -1)" gradientUnits="userSpaceOnUse"><stop offset="0" stop-color="#0e0e0e"/><stop offset=".66" stop-color="#0e0e0e"/><stop offset="1" stop-color="#a30d0b"/></linearGradient><linearGradient id="linear-gradient-7" x1="-479.42" y1="-16645.83" x2="-455.99" y2="-16609.01" gradientTransform="translate(506.75 -16602.41) scale(1 -1)" gradientUnits="userSpaceOnUse"><stop offset="0" stop-color="#fff"/><stop offset=".67" stop-color="#fff"/><stop offset="1" stop-color="#ffacac"/></linearGradient><linearGradient id="linear-gradient-8" x1="-356.74" y1="-16893.47" x2="-356.74" y2="-16711.36" gradientTransform="translate(506.75 -16602.41) scale(1 -1)" gradientUnits="userSpaceOnUse"><stop offset=".75" stop-color="#fff9ed"/><stop offset="1" stop-color="#ffb6b6"/></linearGradient><linearGradient id="linear-gradient-9" x1="-356.79" y1="-16846.32" x2="-356.99" y2="-16808.18" gradientTransform="translate(506.75 -16602.41) scale(1 -1)" gradientUnits="userSpaceOnUse"><stop offset="0" stop-color="#0e0e0e"/><stop offset=".66" stop-color="#0e0e0e"/><stop offset="1" stop-color="#a30d0b"/></linearGradient><linearGradient id="linear-gradient-10" x1="-400.06" y1="-16847.76" x2="-377.33" y2="-16810.93" gradientTransform="translate(506.75 -16602.41) scale(1 -1)" gradientUnits="userSpaceOnUse"><stop offset="0" stop-color="#fff"/><stop offset=".67" stop-color="#fff"/><stop offset="1" stop-color="#ffacac"/></linearGradient><linearGradient id="linear-gradient-11" x1="-329.42" y1="-16845.83" x2="-305.99" y2="-16809.01" gradientTransform="translate(506.75 -16602.41) scale(1 -1)" gradientUnits="userSpaceOnUse"><stop offset="0" stop-color="#fff"/><stop offset=".67" stop-color="#fff"/><stop offset="1" stop-color="#ffacac"/></linearGradient><linearGradient id="linear-gradient-12" x1="-206.75" y1="-17093.46" x2="-206.75" y2="-16911.35" gradientTransform="translate(506.75 -16602.41) scale(1 -1)" gradientUnits="userSpaceOnUse"><stop offset=".75" stop-color="#fff9ed"/><stop offset="1" stop-color="#ffb6b6"/></linearGradient><linearGradient id="linear-gradient-13" x1="-506.75" y1="-17093.46" x2="-506.75" y2="-16911.35" gradientTransform="translate(506.75 -16602.41) scale(1 -1)" gradientUnits="userSpaceOnUse"><stop offset=".75" stop-color="#fff9ed"/><stop offset="1" stop-color="#ffb6b6"/></linearGradient><pattern id="New_Pattern" x="0" y="0" width="300" height="400" patternTransform="translate(-1 -15485) scale(1 -1)" patternUnits="userSpaceOnUse" viewBox="0 0 300 400"><rect class="cls-6" width="300" height="400"/><rect class="cls-6" width="300" height="400"/><path class="cls-2" d="M368.27-72.09V21.91c0,38.76-29.53,69.13-67.25,69.13l-1.89.02c-37.16,0-67.4-30.24-67.4-67.41v-93.13c0-8.03,2.08-21.5,16.04-21.53h.04c7.35,0,9.04,4.08,11.19,10.74,1.79,5.54,4.02,12.44,13.05,12.44,7.86,0,11.02-6.34,13.82-11.93,3.02-6.05,5.62-11.27,13.1-11.27,8.1,0,10.91,5.82,13.88,11.96,2.65,5.5,5.4,11.19,12.18,11.19h.24c8.89-.19,12.8-6.83,16.25-12.7,3.31-5.62,6.17-10.47,12.7-10.47,9.59,0,14.06,6.03,14.06,18.96h0Z"/><path class="cls-16" d="M299.11,88.95c-17.43,0-33.83-6.8-46.16-19.13-12.33-12.33-19.13-28.73-19.13-46.18v-93.13c0-6.06,1.19-11.02,3.45-14.34,2.32-3.42,5.76-5.08,10.5-5.1h.03c5.93,0,7.17,3.02,9.19,9.29,1.78,5.53,4.48,13.89,15.04,13.89,9.16,0,12.78-7.25,15.69-13.08,3.22-6.46,5.33-10.11,11.21-10.11h.02c6.46,0,8.77,4.1,11.99,10.78,2.66,5.51,5.97,12.37,14.06,12.37h.28c10.05-.21,14.47-7.7,18.01-13.73,3.55-6.03,5.97-9.44,10.9-9.44s8.09,1.75,9.95,5.52c2.01,4.07,2.01,9.55,2.01,11.35V21.91c0,18.06-6.65,34.91-18.74,47.46-12.16,12.62-28.64,19.57-46.4,19.57h-.04l-1.89.02M301.04,93.12c39.34,0,69.32-31.88,69.32-71.21v-94c0-7.14-.73-21.05-16.15-21.05s-13.53,22.85-29,23.17h-.2c-12.01,0-8.79-23.13-26.06-23.15h-.02c-16.71,0-13.1,23.19-26.9,23.19-15.55,0-6.36-23.18-24.23-23.18h-.04c-13.04.03-18.13,10.58-18.13,23.62V23.64c0,38.38,31.11,69.49,69.49,69.49l1.91-.02h0Z"/><path class="cls-10" d="M260.15,5.79c30.43-.02,31.82,32.33,31.82,32.33h13.48s-3.71-33.05,34.05-32.33c21.68.42,23.76,38.13,23.76,38.13h-126.6s-.7-38.11,23.49-38.13h0Z"/><path class="cls-7" d="M260.15,5.79c30.43-.02,31.82,32.33,31.82,32.33h13.48s-3.71-33.05,34.05-32.33c21.68.42,23.76,38.13,23.76,38.13h-126.6s-.7-38.11,23.49-38.13h0Z"/><path class="cls-8" d="M288.72,7.45c-.03-.23-.05-.47-.05-.7,0-3.74,4.08-6.81,9.05-6.81s9.05,3.07,9.05,6.81c0,.21-.01.41-.03.61"/><path class="cls-9" d="M269.98,7.09l8.43,3.11,6.37,7.32-21.03,26.39h-17.09l23.33-36.82h0Z"/><path class="cls-5" d="M260.15,5.79c30.43-.02,31.82,32.33,31.82,32.33h13.48s-3.71-33.05,34.05-32.33c21.68.42,23.76,38.13,23.76,38.13h-126.6s-.7-38.11,23.49-38.13h0Z"/><path class="cls-11" d="M68.27-72.09V21.91c0,38.76-29.53,69.13-67.25,69.13l-1.89.02c-37.16,0-67.4-30.24-67.4-67.41v-93.13c0-8.03,2.08-21.5,16.04-21.53h.04c7.35,0,9.04,4.08,11.19,10.74,1.79,5.54,4.02,12.44,13.05,12.44,7.86,0,11.02-6.34,13.82-11.93,3.02-6.05,5.62-11.27,13.1-11.27,8.1,0,10.91,5.82,13.88,11.96,2.65,5.5,5.4,11.19,12.18,11.19h.24c8.89-.19,12.8-6.83,16.25-12.7,3.31-5.62,6.17-10.47,12.7-10.47,9.59,0,14.06,6.03,14.06,18.96h-.01Z"/><path class="cls-16" d="M-.89,88.95c-17.43,0-33.83-6.8-46.16-19.13-12.33-12.33-19.13-28.73-19.13-46.18v-93.13c0-6.06,1.19-11.02,3.45-14.34,2.32-3.42,5.76-5.08,10.5-5.1h.03c5.93,0,7.17,3.02,9.19,9.29,1.78,5.53,4.48,13.89,15.04,13.89,9.16,0,12.78-7.25,15.69-13.08,3.22-6.46,5.33-10.11,11.21-10.11h.02c6.46,0,8.77,4.1,11.99,10.78,2.66,5.51,5.97,12.37,14.06,12.37h.28c10.05-.21,14.47-7.7,18.01-13.73,3.55-6.03,5.97-9.44,10.9-9.44s8.09,1.75,9.95,5.52c2.01,4.07,2.01,9.55,2.01,11.35V21.91c0,18.06-6.65,34.91-18.74,47.46-12.16,12.62-28.64,19.57-46.4,19.57h-.04l-1.89.02M1.04,93.12c39.34,0,69.32-31.88,69.32-71.21v-94c0-7.14-.73-21.05-16.15-21.05s-13.53,22.85-29,23.17h-.2c-12.01,0-8.79-23.13-26.06-23.15h-.02c-16.71,0-13.1,23.19-26.9,23.19-15.55,0-6.36-23.18-24.23-23.18h-.04c-13.04.03-18.13,10.58-18.13,23.62V23.64c0,38.38,31.11,69.49,69.49,69.49l1.91-.02h.01Z"/><path class="cls-18" d="M-39.85,5.79c30.43-.02,31.82,32.33,31.82,32.33H5.46S1.75,5.07,39.51,5.79c21.68.42,23.76,38.13,23.76,38.13H-63.33s-.7-38.11,23.49-38.13h0Z"/><path class="cls-7" d="M-39.85,5.79c30.43-.02,31.82,32.33,31.82,32.33H5.46S1.75,5.07,39.51,5.79c21.68.42,23.76,38.13,23.76,38.13H-63.33s-.7-38.11,23.49-38.13h0Z"/><path class="cls-8" d="M-11.28,7.45c-.03-.23-.05-.47-.05-.7C-11.33,3.01-7.25-.06-2.28-.06S6.77,3.01,6.77,6.75c0,.21-.01.41-.03.61"/><path class="cls-14" d="M40.98,5.12l8.43,3.11,6.37,7.32-21.03,26.39h-17.09L40.99,5.12h0Z"/><path class="cls-5" d="M-39.85,5.79c30.43-.02,31.82,32.33,31.82,32.33H5.46S1.75,5.07,39.51,5.79c21.68.42,23.76,38.13,23.76,38.13H-63.33s-.7-38.11,23.49-38.13h0Z"/><path class="cls-13" d="M218.27,127.91v94c0,38.76-29.53,69.13-67.25,69.13l-1.89.02c-37.16,0-67.4-30.24-67.4-67.41v-93.13c0-8.03,2.08-21.5,16.04-21.53h.04c7.35,0,9.04,4.08,11.19,10.74,1.79,5.54,4.02,12.44,13.05,12.44,7.86,0,11.02-6.34,13.82-11.93,3.02-6.05,5.62-11.27,13.1-11.27,8.1,0,10.91,5.82,13.88,11.96,2.65,5.5,5.4,11.19,12.18,11.19h.24c8.89-.19,12.8-6.83,16.25-12.7,3.31-5.62,6.17-10.47,12.7-10.47,9.59,0,14.06,6.03,14.06,18.96h-.01Z"/><path class="cls-16" d="M149.11,288.95c-17.43,0-33.83-6.8-46.16-19.13s-19.13-28.73-19.13-46.18v-93.13c0-6.06,1.19-11.02,3.45-14.34,2.32-3.42,5.76-5.08,10.5-5.1h.03c5.93,0,7.17,3.02,9.19,9.29,1.78,5.53,4.48,13.89,15.04,13.89,9.16,0,12.78-7.25,15.69-13.08,3.22-6.46,5.33-10.11,11.21-10.11h.02c6.46,0,8.77,4.1,11.99,10.78,2.66,5.51,5.97,12.37,14.06,12.37h.28c10.05-.21,14.47-7.7,18.01-13.73,3.55-6.03,5.97-9.44,10.9-9.44s8.09,1.75,9.95,5.52c2.01,4.07,2.01,9.55,2.01,11.35v94c0,18.06-6.65,34.91-18.74,47.46-12.16,12.62-28.64,19.57-46.4,19.57h-.04l-1.89.02M151.04,293.12c39.34,0,69.32-31.88,69.32-71.21v-94c0-7.14-.73-21.05-16.15-21.05s-13.53,22.85-29,23.17h-.2c-12.01,0-8.79-23.13-26.06-23.15h-.02c-16.71,0-13.1,23.19-26.9,23.19-15.55,0-6.36-23.18-24.23-23.18h-.04c-13.04.03-18.13,10.58-18.13,23.62v93.13c0,38.38,31.11,69.49,69.49,69.49l1.91-.02h0Z"/><path class="cls-15" d="M110.15,205.79c30.43-.02,31.82,32.33,31.82,32.33h13.48s-3.71-33.05,34.05-32.33c21.68.42,23.76,38.13,23.76,38.13h-126.6s-.7-38.11,23.49-38.13Z"/><path class="cls-7" d="M110.15,205.79c30.43-.02,31.82,32.33,31.82,32.33h13.48s-3.71-33.05,34.05-32.33c21.68.42,23.76,38.13,23.76,38.13h-126.6s-.7-38.11,23.49-38.13Z"/><path class="cls-8" d="M138.72,207.45c-.03-.23-.05-.47-.05-.7,0-3.74,4.08-6.81,9.05-6.81s9.05,3.07,9.05,6.81c0,.21,0,.41-.03.61"/><path class="cls-3" d="M119.98,207.09l8.43,3.11,6.37,7.32-21.03,26.39h-17.09l23.33-36.82h-.01Z"/><path class="cls-17" d="M190.98,205.12l8.43,3.11,6.37,7.32-21.03,26.39h-17.09l23.33-36.82h-.01Z"/><path class="cls-5" d="M110.15,205.79c30.43-.02,31.82,32.33,31.82,32.33h13.48s-3.71-33.05,34.05-32.33c21.68.42,23.76,38.13,23.76,38.13h-126.6s-.7-38.11,23.49-38.13Z"/><path class="cls-4" d="M368.27,327.91v93.99c0,38.76-29.53,69.13-67.25,69.13l-1.89.02c-37.16,0-67.4-30.24-67.4-67.41v-93.13c0-8.03,2.08-21.5,16.04-21.53h.04c7.35,0,9.04,4.08,11.19,10.74,1.79,5.54,4.02,12.44,13.05,12.44,7.86,0,11.02-6.34,13.82-11.93,3.02-6.05,5.62-11.27,13.1-11.27,8.1,0,10.91,5.82,13.88,11.96,2.65,5.5,5.4,11.19,12.18,11.19h.24c8.89-.19,12.8-6.83,16.25-12.7,3.31-5.62,6.17-10.47,12.7-10.47,9.59,0,14.06,6.03,14.06,18.96h0Z"/><path class="cls-16" d="M299.11,488.95c-17.43,0-33.83-6.8-46.16-19.13-12.33-12.33-19.13-28.73-19.13-46.18v-93.13c0-6.06,1.19-11.02,3.45-14.34,2.32-3.42,5.76-5.08,10.5-5.1h.03c5.93,0,7.17,3.02,9.19,9.29,1.78,5.53,4.48,13.89,15.04,13.89,9.16,0,12.78-7.25,15.69-13.08,3.22-6.46,5.33-10.11,11.21-10.11h.02c6.46,0,8.77,4.1,11.99,10.78,2.66,5.51,5.97,12.37,14.06,12.37h.28c10.05-.21,14.47-7.7,18.01-13.73,3.55-6.03,5.97-9.44,10.9-9.44s8.09,1.75,9.95,5.52c2.01,4.07,2.01,9.55,2.01,11.35v93.99c0,18.06-6.65,34.91-18.74,47.46-12.16,12.62-28.64,19.57-46.4,19.57h-.04l-1.89.02M301.04,493.12c39.34,0,69.32-31.88,69.32-71.21v-94c0-7.14-.73-21.05-16.15-21.05s-13.53,22.85-29,23.17h-.2c-12.01,0-8.79-23.13-26.06-23.15h-.02c-16.71,0-13.1,23.19-26.9,23.19-15.55,0-6.36-23.18-24.23-23.18h-.04c-13.04.03-18.13,10.58-18.13,23.62v93.14c0,38.38,31.11,69.49,69.49,69.49l1.91-.02h0Z"/><path class="cls-8" d="M288.72,407.45c-.03-.23-.05-.47-.05-.7,0-3.74,4.08-6.81,9.05-6.81s9.05,3.07,9.05,6.81c0,.21-.01.41-.03.61"/><path class="cls-1" d="M68.27,327.91v93.99c0,38.76-29.53,69.13-67.25,69.13l-1.89.02c-37.16,0-67.4-30.24-67.4-67.41v-93.13c0-8.03,2.08-21.5,16.04-21.53h.04c7.35,0,9.04,4.08,11.19,10.74,1.79,5.54,4.02,12.44,13.05,12.44,7.86,0,11.02-6.34,13.82-11.93,3.02-6.05,5.62-11.27,13.1-11.27,8.1,0,10.91,5.82,13.88,11.96,2.65,5.5,5.4,11.19,12.18,11.19h.24c8.89-.19,12.8-6.83,16.25-12.7,3.31-5.62,6.17-10.47,12.7-10.47,9.59,0,14.06,6.03,14.06,18.96h-.01Z"/><path class="cls-16" d="M-.89,488.95c-17.43,0-33.83-6.8-46.16-19.13-12.33-12.33-19.13-28.73-19.13-46.18v-93.13c0-6.06,1.19-11.02,3.45-14.34,2.32-3.42,5.76-5.08,10.5-5.1h.03c5.93,0,7.17,3.02,9.19,9.29,1.78,5.53,4.48,13.89,15.04,13.89,9.16,0,12.78-7.25,15.69-13.08,3.22-6.46,5.33-10.11,11.21-10.11h.02c6.46,0,8.77,4.1,11.99,10.78,2.66,5.51,5.97,12.37,14.06,12.37h.28c10.05-.21,14.47-7.7,18.01-13.73,3.55-6.03,5.97-9.44,10.9-9.44s8.09,1.75,9.95,5.52c2.01,4.07,2.01,9.55,2.01,11.35v93.99c0,18.06-6.65,34.91-18.74,47.46-12.16,12.62-28.64,19.57-46.4,19.57h-.04l-1.89.02M1.04,493.12c39.34,0,69.32-31.88,69.32-71.21v-94c0-7.14-.73-21.05-16.15-21.05s-13.53,22.85-29,23.17h-.2c-12.01,0-8.79-23.13-26.06-23.15h-.02c-16.71,0-13.1,23.19-26.9,23.19-15.55,0-6.36-23.18-24.23-23.18h-.04c-13.04.03-18.13,10.58-18.13,23.62v93.14c0,38.38,31.11,69.49,69.49,69.49l1.91-.02h.01Z"/><path class="cls-8" d="M-11.28,407.45c-.03-.23-.05-.47-.05-.7,0-3.74,4.08-6.81,9.05-6.81s9.04,3.07,9.04,6.81c0,.21-.01.41-.03.61"/></pattern></defs><g class="cls-12"><g id="Layer_1"><rect class="cls-20" width="1600" height="900"/><rect class="cls-19" width="1600" height="900"/></g></g></svg>