<svg xmlns="http://www.w3.org/2000/svg" version="1.1" xmlns:xlink="http://www.w3.org/1999/xlink" width="512" height="512"><svg width="512" height="512" viewBox="0 0 512 512" fill="none" xmlns="http://www.w3.org/2000/svg">
<path d="M404.74 506.274C386.815 506.274 378.977 492.966 369.892 477.547C360.423 461.466 349.685 443.232 325.309 442.72C325.085 442.72 324.861 442.72 324.647 442.72C306.061 442.72 298.522 458.321 291.239 473.409C283.092 490.279 275.393 506.21 253.16 506.231C232.654 506.231 225.499 491.91 217.225 475.318C209.568 459.984 200.899 442.603 179.327 442.603C154.556 442.603 148.446 461.52 143.541 476.715C137.644 494.981 133.005 506.178 112.851 506.178H112.745C74.4631 506.093 68.7476 469.144 68.7476 447.124V191.651C68.7369 89.6874 151.687 6.73694 253.629 6.73694L258.822 6.79026C362.289 6.79026 443.299 90.0819 443.299 196.417V454.269C443.299 489.746 431.047 506.274 404.74 506.274Z" fill="#FFF9ED"></path>
<path d="M253.576 12.4845L258.769 12.5378H258.822H258.876C307.607 12.5378 352.809 31.6039 386.164 66.2279C419.306 100.639 437.562 146.875 437.562 196.417V454.268C437.562 459.206 437.562 474.241 432.038 485.406C426.931 495.728 418.261 500.537 404.74 500.537C391.219 500.537 384.586 491.174 374.84 474.636C365.115 458.118 353.001 437.559 325.426 436.983C325.159 436.983 324.903 436.983 324.647 436.983C302.457 436.983 293.372 455.793 286.067 470.914C277.217 489.244 270.883 500.473 253.171 500.494H253.117C236.994 500.494 231.204 490.471 222.364 472.759C214.388 456.764 204.45 436.866 179.327 436.866C150.376 436.866 142.975 459.792 138.081 474.955C132.525 492.166 129.134 500.441 112.862 500.441H112.766C99.7567 500.409 90.3409 495.834 83.9642 486.461C77.7688 477.344 74.4951 463.748 74.4951 447.124V191.651C74.4951 143.804 93.1347 98.8152 126.97 64.9803C160.794 31.1561 205.761 12.5271 253.587 12.5058M253.629 1C148.35 1 63 86.3497 63 191.629V447.103C63 482.878 76.9584 511.829 112.723 511.904C112.766 511.904 112.798 511.904 112.841 511.904C161.85 511.904 136.652 448.329 179.306 448.329C217.161 448.329 207.265 511.957 253.107 511.957C253.128 511.957 253.149 511.957 253.16 511.957C300.527 511.904 291.698 448.446 324.637 448.446C324.818 448.446 324.999 448.446 325.181 448.446C367.621 449.331 362.417 512 404.729 512C447.042 512 449.036 473.857 449.036 454.258V196.407C449.046 88.4931 366.8 1.05332 258.876 1.05332L253.629 1Z" fill="#0E0E0E"></path>
<path d="M82.29 136.041H429.586C429.586 136.041 423.87 239.487 364.4 240.628C260.816 242.611 271 151.951 271 151.951H234.019C234.019 151.951 230.202 240.681 146.718 240.628C80.3599 240.574 82.29 136.041 82.29 136.041Z" fill="black" stroke="#0E0E0E" stroke-width="6.3767" stroke-miterlimit="10"></path>
<path d="M274.476 236.309C274.54 236.863 274.572 237.428 274.572 237.994C274.572 248.241 263.376 256.676 249.759 256.676C236.141 256.676 224.945 248.241 224.945 237.994C224.945 237.354 224.987 236.714 225.073 236.074" stroke="#0E0E0E" stroke-width="11.4845" stroke-miterlimit="10"></path>
<path d="M109.684 136.041H156.571L214.26 208.435L195.226 226.531L173.675 237.055L109.684 136.041Z" fill="#FFF9ED" stroke="black" stroke-width="6.39803"></path>
<path d="M304.451 141.458H351.338L407.427 212.135L387.167 233.995L365.307 239.327L304.451 141.458Z" fill="#FFF9ED" stroke="black" stroke-width="6.39803"></path>
<path d="M82.29 136.041H429.586C429.586 136.041 423.87 239.487 364.4 240.628C260.816 242.611 271 151.951 271 151.951H234.019C234.019 151.951 230.202 240.681 146.718 240.628C80.3599 240.574 82.29 136.041 82.29 136.041Z" stroke="#0E0E0E" stroke-width="10.2049" stroke-miterlimit="10"></path>
</svg><style>@media (prefers-color-scheme: light) { :root { filter: none; } }
@media (prefers-color-scheme: dark) { :root { filter: none; } }
</style></svg>